<?xml version="1.0" encoding="UTF-8"?>
<svg xmlns="http://www.w3.org/2000/svg" xmlns:xlink="http://www.w3.org/1999/xlink" viewBox="0 0 48 48" width="48px" height="48px">
<g id="surface568426">
<path style=" stroke:none;fill-rule:nonzero;fill:rgb(20.392157%,59.607846%,85.882354%);fill-opacity:1;" d="M 24 4 C 13 4 4 13 4 24 C 4 35 13 44 24 44 C 35 44 44 35 44 24 C 44 13 35 4 24 4 Z M 24 4 "/>
<path style=" stroke:none;fill-rule:nonzero;fill:rgb(80.392158%,98.823529%,100%);fill-opacity:1;" d="M 33 14.699219 L 30.398438 17.699219 C 32 19.300781 33 21.5 33 24 C 33 29 29 33 24 33 C 19 33 15 29 15 24 C 15 21.5 16 19.300781 17.601562 17.699219 L 15 14.699219 C 12.601562 17.101562 11 20.398438 11 24 C 11 31.199219 16.800781 37 24 37 C 31.199219 37 37 31.199219 37 24 C 37 20.300781 35.5 17 33 14.699219 Z M 33 14.699219 "/>
<path style=" stroke:none;fill-rule:nonzero;fill:rgb(80.392158%,98.823529%,100%);fill-opacity:1;" d="M 22 11 L 26 11 L 26 23 L 22 23 Z M 22 11 "/>
</g>
</svg>
