<?xml version="1.0" encoding="UTF-8"?>
<svg xmlns="http://www.w3.org/2000/svg" xmlns:xlink="http://www.w3.org/1999/xlink" viewBox="0 0 48 48" width="48px" height="48px">
<g id="surface542313">
<path style=" stroke:none;fill-rule:nonzero;fill:rgb(80.000001%,80.000001%,80.000001%);fill-opacity:1;" d="M 24 24.238281 C 23.867188 24.238281 23.761719 24.132812 23.761719 24 C 23.761719 23.867188 23.867188 23.761719 24 23.761719 C 24.132812 23.761719 24.238281 23.867188 24.238281 24 C 24.238281 24.132812 24.132812 24.238281 24 24.238281 Z M 24 24.238281 "/>
<path style=" stroke:none;fill-rule:nonzero;fill:rgb(100%,100%,100%);fill-opacity:1;" d="M 24 1.199219 C 11.460938 1.199219 1.199219 11.460938 1.199219 24 C 1.199219 36.539062 11.460938 46.800781 24 46.800781 C 36.539062 46.800781 46.800781 36.539062 46.800781 24 C 46.800781 11.460938 36.539062 1.199219 24 1.199219 Z M 24 1.199219 "/>
<path style=" stroke:none;fill-rule:nonzero;fill:rgb(40.392157%,22.745098%,71.764708%);fill-opacity:1;" d="M 24 46.800781 C 29.128906 46.800781 33.804688 45.089844 37.566406 42.238281 C 36.882812 33.574219 28.21875 31.980469 28.21875 31.980469 L 24 32.890625 L 19.78125 31.980469 C 19.78125 31.980469 11.117188 33.574219 10.433594 42.238281 C 14.195312 45.089844 18.871094 46.800781 24 46.800781 Z M 24 46.800781 "/>
<path style=" stroke:none;fill-rule:nonzero;fill:rgb(19.215687%,10.588235%,57.254905%);fill-opacity:1;" d="M 17.160156 32.890625 C 17.730469 36.3125 20.578125 38.820312 24.113281 38.820312 C 27.648438 38.820312 30.382812 36.199219 30.839844 32.890625 C 29.8125 32.4375 29.015625 32.207031 28.558594 32.09375 C 28.558594 34.601562 26.507812 36.425781 24 36.425781 C 21.492188 36.425781 19.441406 34.375 19.441406 32.09375 C 18.984375 32.207031 18.1875 32.4375 17.160156 32.890625 Z M 17.160156 32.890625 "/>
<path style=" stroke:none;fill-rule:nonzero;fill:rgb(100%,65.490198%,14.901961%);fill-opacity:1;" d="M 33.121094 22.289062 C 33.121094 23.203125 32.320312 24 31.410156 24 C 30.496094 24 29.699219 23.203125 29.699219 22.289062 C 29.699219 21.378906 30.496094 20.578125 31.410156 20.578125 C 32.320312 20.578125 33.121094 21.378906 33.121094 22.289062 M 18.300781 22.289062 C 18.300781 21.378906 17.503906 20.578125 16.589844 20.578125 C 15.679688 20.578125 14.878906 21.378906 14.878906 22.289062 C 14.878906 23.203125 15.679688 24 16.589844 24 C 17.503906 24 18.300781 23.203125 18.300781 22.289062 "/>
<path style=" stroke:none;fill-rule:nonzero;fill:rgb(100%,59.607846%,0%);fill-opacity:1;" d="M 24 36.539062 C 19.441406 36.539062 19.441406 31.980469 19.441406 31.980469 L 19.441406 27.421875 L 28.558594 27.421875 L 28.558594 31.980469 C 28.558594 31.980469 28.558594 36.539062 24 36.539062 Z M 24 36.539062 "/>
<path style=" stroke:none;fill-rule:nonzero;fill:rgb(100%,71.764708%,30.19608%);fill-opacity:1;" d="M 31.980469 17.957031 C 31.980469 11.230469 16.019531 13.625 16.019531 17.957031 L 16.019531 22.972656 C 16.019531 27.304688 19.554688 30.839844 24 30.839844 C 28.445312 30.839844 31.980469 27.304688 31.980469 22.972656 Z M 31.980469 17.957031 "/>
<path style=" stroke:none;fill-rule:nonzero;fill:rgb(25.882354%,25.882354%,25.882354%);fill-opacity:1;" d="M 24 9.179688 C 18.414062 9.179688 14.878906 14.082031 14.878906 18.527344 L 14.878906 20.578125 L 17.160156 22.859375 L 17.160156 18.300781 L 27.648438 14.878906 L 30.839844 18.300781 L 30.839844 22.859375 L 33.121094 20.578125 L 33.121094 19.667969 C 33.121094 16.019531 32.207031 11.914062 27.648438 11.003906 L 26.734375 9.179688 Z M 24 9.179688 "/>
<path style=" stroke:none;fill-rule:nonzero;fill:rgb(47.058824%,27.843139%,9.803922%);fill-opacity:1;" d="M 26.28125 21.71875 C 26.28125 21.035156 26.734375 20.578125 27.421875 20.578125 C 28.105469 20.578125 28.558594 21.035156 28.558594 21.71875 C 28.558594 22.402344 28.105469 22.859375 27.421875 22.859375 C 26.734375 22.859375 26.28125 22.402344 26.28125 21.71875 M 19.441406 21.71875 C 19.441406 22.402344 19.894531 22.859375 20.578125 22.859375 C 21.265625 22.859375 21.71875 22.402344 21.71875 21.71875 C 21.71875 21.035156 21.265625 20.578125 20.578125 20.578125 C 19.894531 20.578125 19.441406 21.035156 19.441406 21.71875 "/>
</g>
</svg>
